<svg xmlns="http://www.w3.org/2000/svg" width="15.998" height="16" viewBox="0 0 15.998 16">
  <path id="iconmonstr-link-1_1_" data-name="iconmonstr-link-1 (1)" d="M4.125,5.813a4.278,4.278,0,0,1,6.592.655l-1.5,1.5a2.256,2.256,0,0,0-2.556-1.3,2.22,2.22,0,0,0-1.089.6L2.707,10.134a2.234,2.234,0,0,0,3.16,3.16l.885-.885a5.688,5.688,0,0,0,2.519.383L7.318,14.745A4.286,4.286,0,0,1,1.256,8.683L4.125,5.813ZM8.683,1.255,6.73,3.208a5.689,5.689,0,0,1,2.519.383l.884-.884a2.234,2.234,0,1,1,3.16,3.16l-2.87,2.87a2.239,2.239,0,0,1-3.16,0,2.378,2.378,0,0,1-.485-.7l-1.5,1.5a4.025,4.025,0,0,0,.531.655,4.282,4.282,0,0,0,6.062,0l2.869-2.87a4.286,4.286,0,1,0-6.06-6.062Z" transform="translate(-0.001 0)" fill="#cbcdd6"/>
</svg>
