<svg xmlns="http://www.w3.org/2000/svg" width="424.057" height="80.878" viewBox="0 0 424.057 80.878">
  <defs>
    <style>
      .cls-1 {
        fill: #281a41;
      }

      .cls-2 {
        fill: #00a193;
      }

      .cls-3 {
        fill: #00ad9c;
      }

      .cls-4 {
        fill: #ffce00;
      }

      .cls-5 {
        fill: #40c799;
      }
    </style>
  </defs>
  <g id="logo" transform="translate(0 -540.08)">
    <g id="グループ化_11" data-name="グループ化 11" transform="translate(129.019 541.329)">
      <path id="パス_20" data-name="パス 20" class="cls-1" d="M-1052.72,348.2a8.043,8.043,0,0,1-2.685-6.332,7.894,7.894,0,0,1,2.685-6.282,10.672,10.672,0,0,1,7.244-2.33,10.717,10.717,0,0,1,7.194,2.33,7.83,7.83,0,0,1,2.736,6.282,8.049,8.049,0,0,1-2.685,6.332,10.519,10.519,0,0,1-7.244,2.381A10.517,10.517,0,0,1-1052.72,348.2Zm.81,58.866q-2.584-2.075-2.583-6.231V365.985q0-4.153,2.583-6.231a9.944,9.944,0,0,1,6.434-2.077,9.947,9.947,0,0,1,6.434,2.077q2.583,2.078,2.583,6.231v34.854q0,4.156-2.583,6.231a9.937,9.937,0,0,1-6.434,2.077A9.933,9.933,0,0,1-1051.91,407.07Z" transform="translate(1055.405 -333.259)"/>
      <path id="パス_21" data-name="パス 21" class="cls-1" d="M-932.3,344.261a7.422,7.422,0,0,1,2.583,5.826v56.131a7.835,7.835,0,0,1-2.432,6.079,9.219,9.219,0,0,1-6.484,2.229,9.278,9.278,0,0,1-6.13-1.976,7.585,7.585,0,0,1-2.685-5.421,14.545,14.545,0,0,1-6.231,5.573,20.208,20.208,0,0,1-9.068,2.027,20.3,20.3,0,0,1-11.4-3.293A22.113,22.113,0,0,1-982,402.165a31.531,31.531,0,0,1-2.837-13.678,31.006,31.006,0,0,1,2.786-13.526,20.93,20.93,0,0,1,7.8-8.967,21.215,21.215,0,0,1,11.5-3.141,19.968,19.968,0,0,1,8.764,1.925,15.532,15.532,0,0,1,6.231,5.167V349.783a7.234,7.234,0,0,1,2.382-5.674,9.3,9.3,0,0,1,6.434-2.128A9.662,9.662,0,0,1-932.3,344.261Zm-17.68,53.75q2.531-3.242,2.533-9.321,0-5.978-2.533-9.169a8.768,8.768,0,0,0-7.3-3.192,8.712,8.712,0,0,0-7.194,3.141Q-967,382.611-967,388.487q0,6.079,2.584,9.422a8.525,8.525,0,0,0,7.143,3.344A8.707,8.707,0,0,0-949.978,398.011Z" transform="translate(1011.883 -338.638)"/>
      <path id="パス_22" data-name="パス 22" class="cls-1" d="M-776.7,401.955q5.521,5.524,5.522,16.769V439.9a7.941,7.941,0,0,1-2.28,6.029,8.79,8.79,0,0,1-6.332,2.178,8.438,8.438,0,0,1-5.826-2.026,7.582,7.582,0,0,1-2.482-5.471,11.218,11.218,0,0,1-4.762,5.674,15.161,15.161,0,0,1-8,2.027,20.569,20.569,0,0,1-9.321-2.077,16.19,16.19,0,0,1-6.535-5.776A15.1,15.1,0,0,1-819.1,432.1a12.554,12.554,0,0,1,2.786-8.562q2.786-3.192,8.866-4.61a75.325,75.325,0,0,1,16.414-1.418h2.736v-1.216q0-3.545-1.621-5.117t-5.471-1.57q-4.156,0-12.158,2.837a12.42,12.42,0,0,1-3.951.811,5.008,5.008,0,0,1-4.053-1.824,7.193,7.193,0,0,1-1.52-4.762,6.64,6.64,0,0,1,.912-3.647,7.933,7.933,0,0,1,2.938-2.533,35.358,35.358,0,0,1,8.916-2.938,51.8,51.8,0,0,1,10.537-1.115Q-782.218,396.433-776.7,401.955Zm-13.931,31.713a9.533,9.533,0,0,0,2.33-6.636v-1.216h-1.621q-6.485,0-9.22,1.165a4,4,0,0,0-2.736,3.9,5.31,5.31,0,0,0,1.469,3.85,5.047,5.047,0,0,0,3.8,1.519A7.689,7.689,0,0,0-790.627,433.668Z" transform="translate(909.676 -372.218)"/>
      <path id="パス_23" data-name="パス 23" class="cls-1" d="M-642.127,419.148a5.8,5.8,0,0,1-2.735,5.269q-2.736,1.722-7.8,1.419l-2.837-.2q-9.119-.707-13.83-5.522t-4.711-13.425V388.752h-2.939q-8.107,0-8.105-6.687,0-6.586,8.105-6.586h2.939v-6.586a8,8,0,0,1,2.431-6.13,9.241,9.241,0,0,1,6.586-2.28,9.244,9.244,0,0,1,6.586,2.28,8,8,0,0,1,2.431,6.13v6.586h5.573q8.1,0,8.106,6.586,0,6.687-8.106,6.687h-5.573v19.453a4.712,4.712,0,0,0,1.165,3.242,4.127,4.127,0,0,0,2.989,1.419l2.938.2Q-642.128,413.475-642.127,419.148Z" transform="translate(827.032 -350.048)"/>
      <path id="パス_24" data-name="パス 24" class="cls-1" d="M-520.009,433.313a7.367,7.367,0,0,1,1.469,4.762,6.7,6.7,0,0,1-3.951,6.18,39.352,39.352,0,0,1-8.156,2.888,36.347,36.347,0,0,1-8.663,1.165,31.577,31.577,0,0,1-14.489-3.141,22.328,22.328,0,0,1-9.524-9.017,27.388,27.388,0,0,1-3.344-13.78,27.865,27.865,0,0,1,3.191-13.425,22.977,22.977,0,0,1,8.916-9.22,25.443,25.443,0,0,1,12.918-3.293,24.1,24.1,0,0,1,12.259,3.04,20.713,20.713,0,0,1,8.156,8.612,28.042,28.042,0,0,1,2.888,13.07,5.441,5.441,0,0,1-1.064,3.6,3.8,3.8,0,0,1-3.091,1.266H-549.24q.708,4.864,3.141,6.991t7.194,2.128a18.344,18.344,0,0,0,4.661-.557,45.363,45.363,0,0,0,4.762-1.57q1.519-.608,2.989-1.064a9.11,9.11,0,0,1,2.685-.456A4.659,4.659,0,0,1-520.009,433.313Zm-26.8-22.442a10.936,10.936,0,0,0-2.533,6.637h15.907q-.607-8.915-7.7-8.916A7.39,7.39,0,0,0-546.809,410.871Z" transform="translate(754.004 -372.218)"/>
      <path id="パス_25" data-name="パス 25" class="cls-1" d="M-372.366,401.753q4.356,5.319,4.357,16.16V439.8a7.835,7.835,0,0,1-2.432,6.079,9.369,9.369,0,0,1-6.586,2.229,9.367,9.367,0,0,1-6.586-2.229,7.836,7.836,0,0,1-2.431-6.079V418.723q0-4.457-1.57-6.485a5.6,5.6,0,0,0-4.712-2.026,8.318,8.318,0,0,0-6.433,2.584,9.838,9.838,0,0,0-2.381,6.94V439.8a7.835,7.835,0,0,1-2.432,6.079,9.368,9.368,0,0,1-6.586,2.229,9.365,9.365,0,0,1-6.586-2.229,7.834,7.834,0,0,1-2.432-6.079V404.741a7.487,7.487,0,0,1,2.533-5.826,9.465,9.465,0,0,1,6.586-2.28,8.623,8.623,0,0,1,6.129,2.128,7.269,7.269,0,0,1,2.28,5.572,17.279,17.279,0,0,1,6.789-5.876,20.748,20.748,0,0,1,9.22-2.027Q-376.723,396.433-372.366,401.753Z" transform="translate(663.047 -372.218)"/>
    </g>
    <rect id="長方形_62" data-name="長方形 62" class="cls-2" width="30.665" height="15.332" rx="7.666" transform="translate(23.382 540.08)"/>
    <rect id="長方形_63" data-name="長方形 63" class="cls-3" width="54.046" height="15.332" rx="7.666" transform="translate(0 561.928)"/>
    <rect id="長方形_64" data-name="長方形 64" class="cls-2" width="54.046" height="15.332" rx="7.666" transform="translate(0 605.625)"/>
    <rect id="長方形_65" data-name="長方形 65" class="cls-4" width="18.015" height="15.332" rx="7.666" transform="translate(0 540.08)"/>
    <rect id="長方形_66" data-name="長方形 66" class="cls-1" width="23.765" height="15.332" rx="7.666" transform="translate(0 583.777)"/>
    <rect id="長方形_67" data-name="長方形 67" class="cls-1" width="25.298" height="15.332" rx="7.666" transform="translate(28.748 583.777)"/>
    <path id="パス_26" data-name="パス 26" class="cls-5" d="M-1207.829,330h-21.3a7.12,7.12,0,0,0-7.12,7.12v66.639a7.12,7.12,0,0,0,7.12,7.12h21.3a18.342,18.342,0,0,0,18.342-18.342V348.342A18.342,18.342,0,0,0-1207.829,330Zm4.16,54.965a2.914,2.914,0,0,1-2.914,2.914h-12.57a2.914,2.914,0,0,1-2.914-2.914v-.688a2.914,2.914,0,0,1,2.914-2.914h12.57a2.914,2.914,0,0,1,2.914,2.914Zm0-14.182a2.914,2.914,0,0,1-2.914,2.914h-12.57a2.914,2.914,0,0,1-2.914-2.914V370.1a2.914,2.914,0,0,1,2.914-2.914h12.57a2.914,2.914,0,0,1,2.914,2.914Zm0-14.182a2.914,2.914,0,0,1-2.914,2.914h-12.57a2.914,2.914,0,0,1-2.914-2.914v-.688a2.914,2.914,0,0,1,2.914-2.914h12.57a2.914,2.914,0,0,1,2.914,2.914Z" transform="translate(1295.95 210.08)"/>
  </g>
</svg>
